<svg width="32" height="32" viewBox="0 0 32 32" fill="none" xmlns="http://www.w3.org/2000/svg">
<g clip-path="url(#clip0_123_832)">
<path d="M21.2117 31.9991C20.1833 31.998 19.1974 31.589 18.4702 30.8619C17.7431 30.1347 17.3341 29.1488 17.333 28.1204V19.9991C17.333 19.6454 17.1925 19.3063 16.9425 19.0563C16.6924 18.8062 16.3533 18.6657 15.9997 18.6657C15.6461 18.6657 15.3069 18.8062 15.0569 19.0563C14.8068 19.3063 14.6663 19.6454 14.6663 19.9991V28.1204C14.6664 28.9718 14.3864 29.7996 13.8696 30.4761C13.3527 31.1527 12.6276 31.6404 11.8062 31.8642C10.9847 32.088 10.1125 32.0354 9.32388 31.7145C8.53528 31.3936 7.87413 30.8222 7.44235 30.0884C4.24768 24.6164 -0.000322292 16.3711 -0.000322292 7.99907C-0.0405591 6.93769 0.138843 5.87945 0.526642 4.89063C0.914441 3.90182 1.50228 3.00376 2.25332 2.25271C3.00437 1.50167 3.90243 0.913831 4.89124 0.526031C5.88006 0.138232 6.9383 -0.0411695 7.99968 -0.000932644C9.7717 -0.000251078 11.5328 0.276397 13.2197 0.819067C14.1151 1.1296 15.0524 1.30268 15.9997 1.3324C16.947 1.30268 17.8843 1.1296 18.7797 0.819067C20.4665 0.276228 22.2276 -0.000424724 23.9997 -0.000932644C25.0611 -0.0411695 26.1193 0.138232 27.1081 0.526031C28.0969 0.913831 28.995 1.50167 29.746 2.25271C30.4971 3.00376 31.0849 3.90182 31.4727 4.89063C31.8605 5.87945 32.0399 6.93769 31.9997 7.99907C31.9997 16.3697 27.7517 24.6151 24.557 30.0884C24.2139 30.6705 23.7249 31.153 23.1381 31.4881C22.5514 31.8232 21.8874 31.9993 21.2117 31.9991ZM15.9997 15.9991C17.0605 15.9991 18.078 16.4205 18.8281 17.1706C19.5783 17.9208 19.9997 18.9382 19.9997 19.9991V28.1204C20.0002 28.3856 20.0874 28.6433 20.2481 28.8543C20.4088 29.0652 20.6342 29.2178 20.8897 29.2887C21.1453 29.3596 21.417 29.3448 21.6634 29.2468C21.9098 29.1488 22.1173 28.9728 22.2543 28.7457C25.293 23.5377 29.333 15.7231 29.333 7.99907C29.3612 7.29114 29.2425 6.58505 28.9844 5.92524C28.7264 5.26542 28.3345 4.66617 27.8336 4.1652C27.3326 3.66422 26.7333 3.27237 26.0735 3.01431C25.4137 2.75625 24.7076 2.63757 23.9997 2.66573C22.4788 2.66495 20.9674 2.90619 19.5223 3.3804C18.3858 3.76224 17.1983 3.9708 15.9997 3.99907C14.8011 3.97092 13.6135 3.76236 12.477 3.3804C11.0319 2.90632 9.52057 2.66508 7.99968 2.66573C2.72634 2.66573 2.66634 7.78173 2.66634 7.99907C2.66634 15.7244 6.70635 23.5391 9.74635 28.7457C9.883 28.9731 10.0904 29.1495 10.3369 29.2478C10.5833 29.3461 10.8552 29.3609 11.1108 29.2899C11.3665 29.219 11.5918 29.0662 11.7523 28.855C11.9129 28.6437 11.9998 28.3857 11.9997 28.1204V19.9991C11.9997 18.9382 12.4211 17.9208 13.1713 17.1706C13.9214 16.4205 14.9388 15.9991 15.9997 15.9991Z" fill="white"/>
</g>
<defs>
<clipPath id="clip0_123_832">
<rect width="32" height="32" fill="white"/>
</clipPath>
</defs>
</svg>
